<svg width="80" height="80" viewBox="0 0 80 80" fill="none" xmlns="http://www.w3.org/2000/svg">
<rect width="80" height="80" rx="40" fill="#E7F4FF" fill-opacity="0.8"/>
<g clip-path="url(#clip0_1452_50548)">
<mask id="mask0_1452_50548" style="mask-type:luminance" maskUnits="userSpaceOnUse" x="16" y="16" width="48" height="48">
<path d="M64 16H16V64H64V16Z" fill="white"/>
</mask>
<g mask="url(#mask0_1452_50548)">
<path d="M44.9107 20.9008C44.9107 18.192 42.7118 15.9982 40.0002 16C37.2887 16.0018 35.0898 18.1985 35.0898 20.9073C35.0898 23.6161 37.2887 25.8099 40.0002 25.8081C42.7118 25.8063 44.9107 23.6097 44.9107 20.9008Z" fill="#5282FF"/>
<path d="M29.7544 28.1469C29.7544 25.4381 27.5555 23.2443 24.844 23.2461C22.1324 23.2479 19.9336 25.4446 19.9336 28.1534C19.9336 30.8622 22.1324 33.056 24.844 33.0542C27.5555 33.0525 29.7544 30.8558 29.7544 28.1469Z" fill="#5282FF"/>
<path d="M60.0669 28.1528C60.0669 25.4439 57.8679 23.2502 55.1565 23.252C52.4448 23.2537 50.2461 25.4504 50.2461 28.1592C50.2461 30.8681 52.4448 33.0619 55.1565 33.0601C57.8679 33.0583 60.0669 30.8616 60.0669 28.1528Z" fill="#5282FF"/>
<path d="M64.0005 44.7963C64.0005 42.0875 61.8015 39.8937 59.0901 39.8955C56.3784 39.8973 54.1797 42.094 54.1797 44.8028C54.1797 47.5118 56.3784 49.7054 59.0901 49.7036C61.8015 49.7018 64.0005 47.5052 64.0005 44.7963Z" fill="#5282FF"/>
<path d="M25.8208 44.7963C25.8208 42.0875 23.622 39.8937 20.9104 39.8955C18.1989 39.8973 16 42.094 16 44.8028C16 47.5118 18.1989 49.7054 20.9104 49.7036C23.622 49.7018 25.8208 47.5052 25.8208 44.7963Z" fill="#5282FF"/>
<path d="M35.9419 58.1264C35.9419 55.4174 33.743 53.2238 31.0315 53.2256C28.3199 53.2274 26.1211 55.424 26.1211 58.1327C26.1211 60.8417 28.3199 63.0353 31.0315 63.0338C33.743 63.032 35.9419 60.8351 35.9419 58.1264Z" fill="#5282FF"/>
<path d="M53.8481 58.1264C53.8481 55.4174 51.6494 53.2238 48.9377 53.2256C46.2263 53.2274 44.0273 55.424 44.0273 58.1327C44.0273 60.8417 46.2263 63.0353 48.9377 63.0338C51.6494 63.032 53.8481 60.8351 53.8481 58.1264Z" fill="#5282FF"/>
<path d="M33.8687 31.2552C34.0646 30.0489 35.2023 29.2304 36.4085 29.4251C37.6147 29.6199 38.4354 30.7546 38.2395 31.9609C38.0437 33.1672 36.906 33.9857 35.6997 33.791C34.4935 33.5962 33.6729 32.4615 33.8687 31.2552Z" fill="#5282FF"/>
<path d="M48.7945 37.847C48.9901 36.6407 50.128 35.8222 51.3343 36.0169C52.5403 36.2117 53.3611 37.3464 53.1652 38.5527C52.9693 39.759 51.8317 40.5775 50.6254 40.3827C49.4191 40.188 48.5986 39.0533 48.7945 37.847Z" fill="#5282FF"/>
<path d="M47.713 32.2275C48.0007 30.4556 46.7953 28.7875 45.0215 28.5011C43.2477 28.2148 41.5762 29.4184 41.2885 31.1903C41.0009 32.9622 42.2062 34.6303 43.98 34.9167C45.7538 35.203 47.4253 33.9994 47.713 32.2275Z" fill="#5282FF"/>
<path d="M51.4239 47.1094C51.7116 45.3374 50.5062 43.6693 48.7323 43.383C46.9587 43.0966 45.2871 44.3002 44.9995 46.072C44.7118 47.8441 45.9171 49.5121 47.691 49.7986C49.4646 50.0848 51.1362 48.8812 51.4239 47.1094Z" fill="#5282FF"/>
<path d="M35.6503 46.924C35.8688 45.5781 34.9533 44.311 33.606 44.0935C32.2586 43.876 30.989 44.7903 30.7705 46.1362C30.552 47.482 31.4675 48.7489 32.8149 48.9664C34.1622 49.1839 35.4318 48.2698 35.6503 46.924Z" fill="#5282FF"/>
<path d="M40.1785 42.7909C38.8739 42.7917 37.8164 41.7363 37.8164 40.4336C37.8164 39.1309 38.8739 38.0741 40.1785 38.0732C41.483 38.0724 42.5405 39.1277 42.5405 40.4305C42.5405 41.7332 41.483 42.79 40.1785 42.7909Z" fill="#5282FF"/>
<path d="M30.3926 34.6691C32.1664 34.9554 33.3717 36.6236 33.0841 38.3955C32.7964 40.1673 31.1249 41.371 29.3511 41.0847C27.5773 40.7983 26.372 39.1302 26.6596 37.3583C26.9473 35.5864 28.6188 34.3827 30.3926 34.6691Z" fill="#5282FF"/>
<path d="M37.6851 51.0543C37.881 49.848 39.0187 49.0292 40.2249 49.2239C41.4312 49.4186 42.2518 50.5536 42.0559 51.7599C41.8601 52.9662 40.7224 53.7846 39.5162 53.5899C38.3099 53.3952 37.4893 52.2606 37.6851 51.0543Z" fill="#5282FF"/>
</g>
</g>
<defs>
<clipPath id="clip0_1452_50548">
<rect width="48" height="48" fill="white" transform="translate(16 16)"/>
</clipPath>
</defs>
</svg>
