<svg width="16" height="16" viewBox="0 0 16 16" fill="none" xmlns="http://www.w3.org/2000/svg">
<path fill-rule="evenodd" clip-rule="evenodd" d="M10.3016 3.51855C11.1402 2.79971 11.2374 1.53711 10.5185 0.698453C9.79967 -0.140198 8.53707 -0.237321 7.69842 0.481523L0.7085 6.47288C0.275129 6.83975 0 7.38776 0 8.00004C0 8.6121 0.274942 9.15995 0.70806 9.52681L7.69842 15.5185C8.53707 16.2374 9.79967 16.1403 10.5185 15.3016C11.2374 14.463 11.1402 13.2004 10.3016 12.4815L7.40651 10L14 10C15.1046 10 16 9.10461 16 8.00004C16 6.89547 15.1046 6.00004 14 6.00004L7.40652 6.00003L10.3016 3.51855Z" fill="#91CDFF"/>
</svg>
